<?xml version="1.0" standalone="no"?><!DOCTYPE svg PUBLIC "-//W3C//DTD SVG 1.1//EN" "http://www.w3.org/Graphics/SVG/1.1/DTD/svg11.dtd"><svg t="1630804833740" class="icon" viewBox="0 0 1024 1024" version="1.1" xmlns="http://www.w3.org/2000/svg" p-id="18538" xmlns:xlink="http://www.w3.org/1999/xlink" width="200" height="200"><defs><style type="text/css"></style></defs><path d="M845.824 205.312c-54.784-35.84-94.208-93.696-106.496-160.768-2.56-14.336-4.096-29.184-4.096-44.544h-174.592v705.536c-3.072 78.848-67.072 142.336-146.432 142.336-24.576 0-47.616-6.144-68.096-16.896-46.592-25.088-78.848-74.24-78.848-131.072 0-81.408 65.536-147.968 146.432-147.968 14.848 0 29.696 2.56 43.52 7.168V379.392c-14.336-2.048-28.672-3.072-43.52-3.072-177.152 0-321.024 145.408-321.024 324.096 0 109.568 54.272 206.336 137.216 265.216C282.624 1002.496 346.112 1024 414.72 1024c177.152 0 321.024-145.408 321.024-324.096V342.528c68.608 49.664 152.064 78.848 242.688 78.848V245.248c-49.152-0.512-94.208-14.848-132.608-39.936z" p-id="18539" fill="#ffffff"></path></svg>