<?xml version="1.0" standalone="no"?><!DOCTYPE svg PUBLIC "-//W3C//DTD SVG 1.1//EN" "http://www.w3.org/Graphics/SVG/1.1/DTD/svg11.dtd"><svg t="1629783353541" class="icon" viewBox="0 0 1024 1024" version="1.1" xmlns="http://www.w3.org/2000/svg" p-id="13582" xmlns:xlink="http://www.w3.org/1999/xlink" width="200" height="200"><defs><style type="text/css"></style></defs><path d="M862.993016 148.089944a505.388985 505.388985 0 0 0-714.785319 0A505.608402 505.608402 0 0 0 863.066155 863.094679a505.462124 505.462124 0 0 0-0.146278-714.931597zM725.857799 663.937775a43.736992 43.736992 0 0 1-61.802271 61.802271L505.41751 567.394582 347.145185 725.740046a43.736992 43.736992 0 0 1-61.802271-61.802271l158.491741-158.345464-158.491741-158.418602a43.736992 43.736992 0 0 1 61.802271-61.802271L505.41751 443.79004 663.909251 285.298299a43.736992 43.736992 0 0 1 61.802271 61.802271L567.292919 505.592311l158.56488 158.345464z" fill="#F56C6C" p-id="13583"></path></svg>