<?xml version="1.0" standalone="no"?><!DOCTYPE svg PUBLIC "-//W3C//DTD SVG 1.1//EN" "http://www.w3.org/Graphics/SVG/1.1/DTD/svg11.dtd"><svg t="1629773197142" class="icon" viewBox="0 0 1024 1024" version="1.1" xmlns="http://www.w3.org/2000/svg" p-id="2737" xmlns:xlink="http://www.w3.org/1999/xlink" width="200" height="200"><defs><style type="text/css"></style></defs><path d="M925.072 866.338c-22.55-58.665-54.879-111.396-96.079-156.727-41.419-45.572-89.732-81.389-143.598-106.458a428.81 428.81 0 0 0-31.037-12.991c23.153-13.107 44.673-29.438 63.998-48.763 56.076-56.076 86.959-130.633 86.959-209.936s-30.881-153.86-86.959-209.936-130.634-86.959-209.937-86.959-153.86 30.883-209.937 86.959c-56.076 56.078-86.959 130.633-86.959 209.936s30.883 153.86 86.959 209.936c19.325 19.325 40.846 35.655 63.997 48.763a429.898 429.898 0 0 0-31.037 12.991c-53.866 25.068-102.179 60.884-143.598 106.458-41.202 45.332-75.248 97.431-96.08 156.727-17.385 49.481-15.568 98.351-16.45 121.174h69.838C142.848 824.515 297.84 633.689 508.42 633.689c210.579 0 369.644 197.809 370.256 353.823h69.837c-1.243-44.114-0.159-60.62-23.438-121.174zM281.379 331.462c0-125.188 101.85-227.038 227.039-227.038 125.188 0 227.039 101.85 227.039 227.038S633.606 558.5 508.418 558.5c-125.189 0-227.039-101.85-227.039-227.038z" fill="#ffffff" p-id="2738"></path></svg>