<?xml version="1.0" standalone="no"?><!DOCTYPE svg PUBLIC "-//W3C//DTD SVG 1.1//EN" "http://www.w3.org/Graphics/SVG/1.1/DTD/svg11.dtd"><svg t="1629783315397" class="icon" viewBox="0 0 1024 1024" version="1.1" xmlns="http://www.w3.org/2000/svg" p-id="7491" xmlns:xlink="http://www.w3.org/1999/xlink" width="200" height="200"><defs><style type="text/css"></style></defs><path d="M512 512m-512 0a512 512 0 1 0 1024 0 512 512 0 1 0-1024 0Z" fill="#4CD964" p-id="7492"></path><path d="M768 302.545455c18.618182-18.618182 46.545455-23.272727 65.163636-4.654546 18.618182 18.618182 23.272727 46.545455 4.654546 65.163636L479.418182 791.272727c-18.618182 23.272727-51.2 23.272727-69.818182 0l-167.563636-176.872727c-18.618182-18.618182-18.618182-46.545455 0-65.163636s46.545455-18.618182 65.163636 0l130.327273 139.636363 330.472727-386.327272z" fill="#979797" p-id="7493"></path><path d="M768 302.545455c18.618182-18.618182 46.545455-23.272727 65.163636-4.654546 18.618182 18.618182 23.272727 46.545455 4.654546 65.163636L479.418182 791.272727c-18.618182 23.272727-51.2 23.272727-69.818182 0l-167.563636-176.872727c-18.618182-18.618182-18.618182-46.545455 0-65.163636s46.545455-18.618182 65.163636 0l130.327273 139.636363 330.472727-386.327272z" fill="#FFFFFF" p-id="7494"></path></svg>