<?xml version="1.0" standalone="no"?><!DOCTYPE svg PUBLIC "-//W3C//DTD SVG 1.1//EN" "http://www.w3.org/Graphics/SVG/1.1/DTD/svg11.dtd"><svg t="1629773245106" class="icon" viewBox="0 0 1024 1024" version="1.1" xmlns="http://www.w3.org/2000/svg" p-id="4927" xmlns:xlink="http://www.w3.org/1999/xlink" width="200" height="200"><defs><style type="text/css"></style></defs><path d="M498.321 605.373l22.66 0c18.888 0 36.539 8.072 36.539 27.376l0 180.104c0 19.061-17.651 24.447-36.539 24.447l-22.66 0c-18.882 0-30.853-5.386-30.853-24.447L467.468 632.748C467.468 613.445 479.439 605.373 498.321 605.373L498.321 605.373 498.321 605.373 498.321 605.373zM887.877 482.444l0 420.352c0 24.932-35.505 60.111-60.067 60.111L197.177 962.907c-24.561 0-60.054-35.18-60.054-60.111L137.123 482.444 887.877 482.444 887.877 482.444zM947.931 422.333 77.069 422.333l0 485.836c0 63.047 51.005 114.85 115.22 114.85l640.422 0c62.313 0 115.22-51.803 115.22-114.85L947.931 422.333 947.931 422.333 947.931 422.333zM797.755 422.333l0-59.875c0.057-157.63-139.66-302.797-285.318-300.595-149.194 2.202-285.261 149.072-285.261 300.595l0 59.875-60.054 0 0-59.875c0-189.644 159.276-360.477 346.298-360.477 185.114 0 343.847 151.274 343.847 348.735l0.542 71.617L797.755 422.333 797.755 422.333z" p-id="4928" fill="#ffffff"></path></svg>