<?xml version="1.0" standalone="no"?><!DOCTYPE svg PUBLIC "-//W3C//DTD SVG 1.1//EN" "http://www.w3.org/Graphics/SVG/1.1/DTD/svg11.dtd"><svg t="1631259650990" class="icon" viewBox="0 0 1024 1024" version="1.1" xmlns="http://www.w3.org/2000/svg" p-id="5741" width="32" height="32" xmlns:xlink="http://www.w3.org/1999/xlink"><defs><style type="text/css"></style></defs><path d="M74.155 1019.392c-7.68 0-11.606 0-15.36-3.84a34.987 34.987 0 0 1-15.446-30.72l3.84-947.115c0-11.605 7.68-23.125 15.36-30.805 11.606-7.68 23.126-7.68 34.646 0l816.128 477.355a34.987 34.987 0 0 1 15.36 30.72c0 11.605-7.68 23.125-15.36 30.89L89.6 1015.467c-3.84 0-11.52 3.84-15.36 3.84z m38.4-920.064l-7.68 827.733 719.957-408.064L112.64 99.328z" p-id="5742" fill="#ffffff"></path></svg>