<?xml version="1.0" standalone="no"?><!DOCTYPE svg PUBLIC "-//W3C//DTD SVG 1.1//EN" "http://www.w3.org/Graphics/SVG/1.1/DTD/svg11.dtd"><svg t="1631674998731" class="icon" viewBox="0 0 1024 1024" version="1.1" xmlns="http://www.w3.org/2000/svg" p-id="2790" xmlns:xlink="http://www.w3.org/1999/xlink" width="32" height="32"><defs><style type="text/css"></style></defs><path d="M512 780.8c-49.664 0-89.6 39.936-89.6 89.6S462.336 960 512 960s89.6-39.936 89.6-89.6-39.936-89.6-89.6-89.6z m0-179.2c49.664 0 89.6-39.936 89.6-89.6s-39.936-89.6-89.6-89.6-89.6 39.936-89.6 89.6 39.936 89.6 89.6 89.6z m0-358.4c49.664 0 89.6-39.936 89.6-89.6S561.664 64 512 64s-89.6 39.936-89.6 89.6c0 49.152 39.936 89.6 89.6 89.6z" p-id="2791" fill="#8a8a8a"></path></svg>